<?xml version="1.0" encoding="UTF-8" standalone="no"?>
<!DOCTYPE svg PUBLIC "-//W3C//DTD SVG 1.1//EN" "http://www.w3.org/Graphics/SVG/1.1/DTD/svg11.dtd">
<svg width="100%" height="100%" viewBox="0 0 1812 473" version="1.1" xmlns="http://www.w3.org/2000/svg" xmlns:xlink="http://www.w3.org/1999/xlink" xml:space="preserve" xmlns:serif="http://www.serif.com/" style="fill-rule:evenodd;clip-rule:evenodd;stroke-linejoin:round;stroke-miterlimit:2;">
    <g transform="matrix(1.01997,-5.99178e-34,-1.12694e-31,1.0152,12.9032,35.8631)">
        <rect x="-51.25" y="-74.107" width="1852.77" height="542.93" style="fill:rgb(0,138,68);"/>
    </g>
    <g id="Vector-Letters" serif:id="Vector Letters" transform="matrix(1.05101,0,0,0.998144,-68.6448,8.4893)">
        <g id="C" transform="matrix(0.993188,0,0,0.993188,6.0397,2.62902)">
            <path d="M213.385,246.841C193.092,246.841 194.413,231.042 194.413,205.165C194.413,168.235 208.005,117.753 225.951,117.753C252.24,117.753 250.013,136.703 264.518,136.764C279.024,136.826 284.171,114.23 283.302,100.783C282.09,82.012 273.399,52.332 251.601,52.332C240.67,52.332 227.647,56.984 219.395,59.645C206.646,63.757 193.243,67.436 178.08,81.869C162.956,96.264 146.098,123.726 133.671,165.176C92.973,300.929 150.552,335.363 181.293,335.144C224.571,334.836 260.444,270.184 260.223,250.564C260.051,235.224 251.239,232.71 245.435,232.71C232.719,232.71 231.051,246.841 213.385,246.841Z" style="fill:white;"/>
        </g>
        <g id="Y" transform="matrix(1,0,0,1,-3.95945,0.582869)">
            <path d="M324.77,145.176C311.515,145.176 273.377,155.552 273.377,173.508C273.377,187.931 290.042,186.631 290.042,196.841C290.042,210.335 282.435,249.232 282.435,289.032C282.435,313.605 294.563,334.927 309.119,334.927C329.936,334.927 348.338,307.261 357.045,307.261C364.378,307.261 358.166,330.271 358.166,350.6C358.166,374.882 374.374,400.065 409.693,400.065C438.193,400.065 454.371,380.52 454.371,373.121C454.371,368.685 452.286,367.155 449.437,367.155C445.354,367.155 444.895,370.227 433.6,370.227C418.494,370.227 410.646,359.544 410.646,333.715C410.646,307.887 415.354,275.22 418.758,242.713C427.721,157.1 433.891,144.88 420.054,144.88L391.79,144.83C383.14,144.737 381.393,151.797 379.23,169.546C378.075,179.016 376.023,193.958 374.473,207.084C370.87,237.587 371.582,270.276 345.686,270.276C314.499,270.276 342.698,212.179 342.698,163.549C342.698,152.442 335.877,145.176 324.77,145.176Z" style="fill:white;"/>
        </g>
        <g id="B" transform="matrix(1,0,0,1,-3.13014,1.54915)">
            <path d="M452.159,105.568C452.159,90.497 441.263,94.549 441.263,80.912C441.263,67.275 466.79,53.093 487.573,53.093C505.942,53.093 503.698,70.064 503.698,76.266C503.698,105.522 497.669,127.947 507.233,127.947C516.796,127.947 515.894,123.393 529.017,123.393C544.698,123.393 568.039,137.729 568.039,206.596C568.039,246.88 535.479,328.067 491.511,328.067C474.227,328.067 474.331,321.835 460.87,321.835C447.408,321.835 448.535,333.942 437.587,333.942C422.345,333.942 432.013,304.3 438.77,231.196C443.362,181.507 452.159,120.638 452.159,105.568ZM491.629,265.585C481.318,265.585 486.33,248.414 489.753,217.256C492.521,192.055 495.369,187.909 502.852,187.909C517.639,187.909 514.596,215.543 513.444,223.144C511.527,235.799 501.94,265.585 491.629,265.585Z" style="fill:white;"/>
        </g>
        <g id="E" transform="matrix(1.01904,0,0,1.01904,-13.6997,-3.95056)">
            <path d="M653.727,138.435C570.327,138.435 535.237,333.099 624.336,333.099C665.953,333.099 689.48,271.363 679.453,265.143C671.452,260.179 662.843,282.495 644.958,282.495C637.48,282.495 623.006,279.348 623.006,263.601C623.006,238.963 688.428,249.435 693.901,180.904C695.202,164.609 679.709,138.435 653.727,138.435ZM627.604,216.662C640.432,222.365 661.138,188.408 646.584,180.093C640.812,176.796 633.773,181.949 629.041,192.396C625.018,201.279 622.274,214.292 627.604,216.662Z" style="fill:white;"/>
        </g>
        <g id="R" transform="matrix(1,0,0,1,-0.677562,2.56675)">
            <path d="M755.505,137.408C745.078,137.408 703.01,151.374 703.01,174.999C703.01,189.415 723.916,185.187 722.688,202.474C722.123,210.44 718.699,248.656 714.546,281.058C711.442,305.277 705.946,332.843 716.308,332.843C720.452,332.843 749.001,332.925 749.001,332.925C758.393,332.988 756.338,318.27 760.45,287.803C770.243,215.254 777.399,189.337 793.425,182.79C819.438,172.163 824.939,179.365 835.546,178.906C840.811,178.679 840.853,170.358 840.853,165.088C840.853,144.322 831.575,131.125 814.293,131.125C788.897,131.125 786.182,150.742 776.589,150.617C766.996,150.492 773.243,137.408 755.505,137.408Z" style="fill:white;"/>
        </g>
        <g id="B1" serif:id="B" transform="matrix(1,0,0,1,405.509,1.54915)">
            <path d="M452.159,105.568C452.159,90.497 441.263,94.549 441.263,80.912C441.263,67.275 466.79,53.093 487.573,53.093C505.942,53.093 503.698,70.064 503.698,76.266C503.698,105.522 497.669,127.947 507.233,127.947C516.796,127.947 515.894,123.393 529.017,123.393C544.698,123.393 568.039,137.729 568.039,206.596C568.039,246.88 535.479,328.067 491.511,328.067C474.227,328.067 474.331,321.835 460.87,321.835C447.408,321.835 448.535,333.942 437.587,333.942C422.345,333.942 432.013,304.3 438.77,231.196C443.362,181.507 452.159,120.638 452.159,105.568ZM491.629,265.585C481.318,265.585 486.33,248.414 489.753,217.256C492.521,192.055 495.369,187.909 502.852,187.909C517.639,187.909 514.596,215.543 513.444,223.144C511.527,235.799 501.94,265.585 491.629,265.585Z" style="fill:white;"/>
        </g>
        <g id="A" transform="matrix(1,0,0,1,1.0569,0.854291)">
            <path d="M1009.32,333.564C972.101,333.564 970.998,257.351 983.633,217.637C999.871,166.597 1022.88,130.41 1042.95,130.41C1054.89,130.41 1056.37,136.685 1072.17,136.685C1083.87,136.685 1083.97,131.678 1091.99,131.678C1105.88,131.678 1104.21,147.914 1101.88,185.5C1098.91,233.393 1096.14,246.614 1098.85,255.669C1100.85,262.339 1114.84,266.266 1114.84,277.971C1114.84,294.136 1083.67,334.637 1064.68,334.637C1043.5,334.637 1055.39,312.698 1044.33,312.698C1035.76,312.698 1030.56,333.564 1009.32,333.564ZM1051.59,181.212C1059.55,182.323 1056.46,198.66 1054.58,215.898C1052.19,237.759 1051.58,261.479 1037.61,260.389C1026.7,259.539 1028.32,244.21 1029.81,228.582C1032,205.492 1039.1,179.468 1051.59,181.212Z" style="fill:white;"/>
        </g>
        <g id="C1" serif:id="C" transform="matrix(0.717893,0,0,0.717893,1040.79,94.8931)">
            <path d="M213.385,246.841C193.092,246.841 194.822,230.015 194.822,204.138C194.822,169.037 205.91,122.525 226.508,122.525C247.106,122.525 247.708,153.968 262.214,154.029C276.72,154.091 283.604,121.539 283.604,108.064C283.604,77.472 270.808,52.116 251.356,52.262C240.425,52.344 227.647,56.984 219.395,59.645C206.646,63.757 193.243,67.436 178.08,81.869C162.956,96.264 146.098,123.726 133.671,165.176C92.973,300.929 150.552,335.363 181.293,335.144C224.571,334.836 260.444,270.184 260.223,250.564C260.051,235.224 251.239,232.71 245.435,232.71C232.719,232.71 231.051,246.841 213.385,246.841Z" style="fill:white;"/>
        </g>
        <g id="H" transform="matrix(1,0,0,1,1.0569,2.0569)">
            <path d="M1245.44,87.37C1245.44,70.751 1281.35,58.943 1296.15,58.943C1318.51,58.943 1314.76,79.543 1313.77,91.04C1312.24,108.914 1308.95,130.665 1307.13,147.428C1305.66,160.916 1304.4,171.919 1310.24,171.919C1320.33,171.919 1336.5,144.746 1356.08,144.746C1369.6,144.746 1381.21,154.597 1383.61,182.267C1385.45,203.469 1381.16,240.704 1376.43,289.762C1372.24,333.317 1368.39,370.294 1395.48,370.294C1409.77,370.294 1413.42,363.754 1417,370.036C1421.69,378.284 1398.94,399.648 1370.95,399.648C1334.15,399.648 1320.86,373.297 1320.56,341.623C1319.99,282.932 1353.4,208.985 1321.34,208.985C1296.99,208.985 1297.05,239.491 1293.41,267.771C1289.1,301.198 1288.27,333.652 1277.31,333.652C1269.48,333.652 1246.7,333.851 1246.7,333.851C1230.61,333.851 1242.58,300.598 1252.52,196.311C1254.91,171.209 1264.73,114.097 1261.1,106.852C1256.58,97.815 1245.44,99.889 1245.44,87.37Z" style="fill:white;"/>
        </g>
        <g id="E1" serif:id="E" transform="matrix(1.01904,0,0,1.01904,811.833,-3.95056)">
            <path d="M653.727,138.435C570.327,138.435 535.237,333.099 624.336,333.099C665.953,333.099 689.48,271.363 679.453,265.143C671.452,260.179 662.843,282.495 644.958,282.495C637.48,282.495 623.006,279.348 623.006,263.601C623.006,238.963 688.428,249.435 693.901,180.904C695.202,164.609 679.709,138.435 653.727,138.435ZM627.604,216.662C640.432,222.365 661.138,188.408 646.584,180.093C640.812,176.796 633.773,181.949 629.041,192.396C625.018,201.279 622.274,214.292 627.604,216.662Z" style="fill:white;"/>
        </g>
        <g id="R--Secondary-" serif:id="R (Secondary)" transform="matrix(1,0,0,1,823.762,2.56673)">
            <path d="M755.505,137.408C745.078,137.408 703.01,151.374 703.01,174.999C703.01,189.415 723.916,185.187 722.688,202.474C722.123,210.44 718.699,248.656 714.546,281.058C711.442,305.277 705.946,332.843 716.308,332.843C720.452,332.843 749.001,332.925 749.001,332.925C758.393,332.988 757.025,319.343 760.45,287.803C772.184,179.751 811.053,134.928 850.093,118.85C883.601,105.051 891.285,131.125 891.285,103.212C891.285,87.349 885.152,69.518 864.386,69.518C827.767,69.518 789.841,150.756 777.554,150.44C765.268,150.124 775.998,137.408 755.505,137.408Z" style="fill:white;"/>
        </g>
        <g id="Registered-TM-Symbol" serif:id="Registered TM Symbol" transform="matrix(1,0,0,1,4.18703,2.11379)">
            <path d="M1682.89,157.328C1705.99,157.328 1724.73,176.076 1724.73,199.17C1724.73,222.263 1705.99,241.012 1682.89,241.012C1659.8,241.012 1641.05,222.263 1641.05,199.17C1641.05,176.076 1659.8,157.328 1682.89,157.328ZM1682.89,162.989C1702.86,162.989 1719.07,179.201 1719.07,199.17C1719.07,219.138 1702.86,235.35 1682.89,235.35C1662.92,235.35 1646.71,219.138 1646.71,199.17C1646.71,179.201 1662.92,162.989 1682.89,162.989ZM1667.02,172.989L1686.63,172.989C1686.65,172.989 1686.68,172.989 1686.7,172.99C1696.05,173.094 1703.6,179.774 1703.6,187.989C1703.6,194.274 1699.17,199.661 1692.91,201.892C1692.91,201.892 1697.95,212.827 1700.39,218.142C1700.68,218.761 1700.63,219.483 1700.26,220.057C1699.9,220.631 1699.26,220.978 1698.58,220.979C1696.72,220.98 1694.44,220.983 1693.05,220.984C1692.27,220.985 1691.56,220.53 1691.24,219.82C1689.74,216.566 1685.52,207.405 1684.02,204.152C1683.69,203.443 1682.98,202.989 1682.2,202.989C1680.62,202.989 1677.9,202.989 1676.04,202.989C1675.51,202.989 1675,203.199 1674.62,203.574C1674.25,203.949 1674.04,204.458 1674.04,204.989C1674.04,209.284 1674.04,219.005 1674.04,219.005C1674.04,220.1 1673.15,220.989 1672.05,220.989L1667.02,220.989C1665.92,220.989 1665.04,220.1 1665.04,219.005L1665.04,174.972C1665.04,173.877 1665.92,172.989 1667.02,172.989ZM1676.04,181.011L1686.37,181.011C1686.46,181.011 1686.55,181.017 1686.63,181.028C1690.2,181.282 1693.02,184.314 1693.02,188.011C1693.02,191.709 1690.2,194.74 1686.63,194.994C1686.55,195.005 1686.46,195.011 1686.37,195.011L1676.04,195.011C1674.93,195.011 1674.04,194.115 1674.04,193.011L1674.04,183.011C1674.04,181.907 1674.93,181.011 1676.04,181.011Z" style="fill:white;"/>
        </g>
    </g>
</svg>
